<!-- ============================== -->
<!-- ====== USE ON HTML FILE ====== -->
<!-- ============================== -->
<!--
<svg class="">
<use xlink:href="./img/sprite.svg#cola"></use>
</svg>
-->

<!-- =============================== -->
<!-- ====== USE ON SPRITE.svg ====== -->
<!-- =============================== -->
<!--
<symbol id="" viewBox="">
<path/>
</symbol>
-->

<svg xmlns="http://www.w3.org/2000/svg">

  <symbol id="fav" viewBox="0 0 21 19">
    <path d="M15.1003 0C16.7293 0 18.0976 0.54932 19.2052 1.64796C20.3129 2.7466 20.8668 4.08759 20.8668 5.67092C20.8668 6.44643 20.7039 7.23002 20.3781 8.02169C20.0523 8.81335 19.6939 9.51616 19.303 10.1301C18.912 10.7441 18.2523 11.5357 17.3238 12.5051C16.3953 13.4745 15.6134 14.2581 14.9781 14.8559C14.3428 15.4537 13.3248 16.3665 11.9239 17.5944L10.4089 18.9515L8.89403 17.6429C7.52572 16.3827 6.51577 15.4537 5.8642 14.8559C5.21262 14.2581 4.42258 13.4745 3.49408 12.5051C2.56559 11.5357 1.90586 10.7441 1.51492 10.1301C1.12397 9.51616 0.773748 8.81335 0.464249 8.02169C0.15475 7.23002 0 6.44643 0 5.67092C0 4.08759 0.553841 2.7466 1.66152 1.64796C2.7692 0.54932 4.12123 0 5.71759 0C7.60717 0 9.17095 0.727041 10.4089 2.18112C11.6469 0.727041 13.2107 0 15.1003 0ZM10.5067 16.0918C12.1031 14.6701 13.2677 13.6118 14.0008 12.9171C14.7338 12.2224 15.5401 11.3903 16.4198 10.4209C17.2994 9.45153 17.9102 8.60332 18.2523 7.87628C18.5944 7.14924 18.7654 6.41412 18.7654 5.67092C18.7654 4.63691 18.4152 3.78061 17.7148 3.10204C17.0143 2.42347 16.1428 2.08418 15.1003 2.08418C14.3184 2.08418 13.5772 2.31037 12.8768 2.76276C12.1764 3.21514 11.6795 3.79677 11.3863 4.50765H9.43158C9.17095 3.79677 8.69041 3.21514 7.98997 2.76276C7.28952 2.31037 6.53206 2.08418 5.71759 2.08418C4.67507 2.08418 3.81173 2.42347 3.12757 3.10204C2.44342 3.78061 2.10134 4.63691 2.10134 5.67092C2.10134 6.41412 2.26423 7.14924 2.59002 7.87628C2.91581 8.60332 3.52666 9.45153 4.42258 10.4209C5.3185 11.3903 6.13297 12.2224 6.866 12.9171C7.59902 13.6118 8.74743 14.6701 10.3112 16.0918L10.4089 16.1888L10.5067 16.0918Z" />
  </symbol>

  <symbol id="cart" viewBox="0 0 21 20">
    <path fill-rule="evenodd" clip-rule="evenodd" d="M2.8798 2.75768C2.79028 2.75093 2.66604 2.75033 2.43306 2.75033H0.916667C0.410406 2.75033 0 2.33992 0 1.83366C0 1.3274 0.410406 0.916996 0.916667 0.916996H2.43306C2.4417 0.916996 2.45034 0.916995 2.45898 0.916994C2.65575 0.91697 2.85058 0.916946 3.01755 0.929526C3.20335 0.943526 3.41921 0.976408 3.64252 1.07602C3.9568 1.21621 4.22528 1.44203 4.41724 1.72764C4.55364 1.93058 4.62303 2.13761 4.66865 2.31827C4.70966 2.48061 4.74301 2.67256 4.77671 2.86642C4.77818 2.87494 4.77966 2.88345 4.78115 2.89197L4.99956 4.14787L16.9291 4.50099C17.3965 4.51481 17.8005 4.52676 18.1332 4.5634C18.4849 4.60213 18.8336 4.67496 19.168 4.85314C19.6748 5.12313 20.0844 5.545 20.3393 6.05956C20.5075 6.39915 20.5699 6.7498 20.5982 7.10246C20.625 7.4361 20.625 7.84027 20.625 8.30795V8.37555C20.625 8.81506 20.625 9.19632 20.6004 9.51247C20.5743 9.84775 20.5167 10.1808 20.3631 10.5071C20.1293 11.0037 19.7523 11.419 19.2804 11.6996C18.9704 11.8839 18.6445 11.9733 18.3133 12.0316C18.001 12.0865 17.6216 12.1232 17.1841 12.1656L8.26136 13.029C7.81293 13.0725 7.4244 13.1101 7.10024 13.1158C6.75679 13.1218 6.41246 13.0951 6.06676 12.9682C5.54832 12.7777 5.09924 12.4356 4.778 11.9863C4.5638 11.6867 4.44668 11.3618 4.36134 11.029C4.28079 10.715 4.21392 10.3304 4.13675 9.88658L2.97492 3.20609C2.935 2.97655 2.91312 2.85426 2.89114 2.76721C2.89036 2.76412 2.8896 2.76118 2.88887 2.7584C2.88601 2.75816 2.88298 2.75792 2.8798 2.75768ZM5.32019 5.99149L5.93719 9.53925C6.02181 10.0258 6.07681 10.3382 6.13719 10.5736C6.19478 10.7981 6.24033 10.8794 6.26935 10.92C6.37643 11.0697 6.52612 11.1838 6.69894 11.2473C6.74577 11.2645 6.83624 11.2868 7.06799 11.2827C7.31098 11.2785 7.62676 11.2486 8.11829 11.201L16.9745 10.3439C17.4543 10.2975 17.762 10.2671 17.9956 10.226C18.2181 10.1868 18.3011 10.1489 18.3435 10.1238C18.5008 10.0302 18.6264 9.89181 18.7044 9.72626C18.7254 9.68167 18.7551 9.59536 18.7726 9.37014C18.791 9.13371 18.7917 8.82451 18.7917 8.34246C18.7917 7.8305 18.791 7.50062 18.7708 7.24915C18.7515 7.00853 18.7187 6.91832 18.6964 6.87332C18.6115 6.7018 18.4749 6.56118 18.306 6.47118C18.2617 6.44757 18.1725 6.41214 17.9325 6.38572C17.6818 6.3581 17.3521 6.34765 16.8403 6.3325L5.32019 5.99149Z" />
    <path fill-rule="evenodd" clip-rule="evenodd" d="M7.79167 16.042C7.28541 16.042 6.875 16.4524 6.875 16.9587C6.875 17.4649 7.28541 17.8753 7.79167 17.8753C8.29793 17.8753 8.70833 17.4649 8.70833 16.9587C8.70833 16.4524 8.29793 16.042 7.79167 16.042ZM5.04167 16.9587C5.04167 15.4399 6.27288 14.2087 7.79167 14.2087C9.31045 14.2087 10.5417 15.4399 10.5417 16.9587C10.5417 18.4774 9.31045 19.7087 7.79167 19.7087C6.27288 19.7087 5.04167 18.4774 5.04167 16.9587Z" />
    <path fill-rule="evenodd" clip-rule="evenodd" d="M16.5 16.042C15.9937 16.042 15.5833 16.4524 15.5833 16.9587C15.5833 17.4649 15.9937 17.8753 16.5 17.8753C17.0063 17.8753 17.4167 17.4649 17.4167 16.9587C17.4167 16.4524 17.0063 16.042 16.5 16.042ZM13.75 16.9587C13.75 15.4399 14.9812 14.2087 16.5 14.2087C18.0188 14.2087 19.25 15.4399 19.25 16.9587C19.25 18.4774 18.0188 19.7087 16.5 19.7087C14.9812 19.7087 13.75 18.4774 13.75 16.9587Z" />
  </symbol>
  
  <symbol id="user" viewBox="0 0 20 20">
    <path fill-rule="evenodd" clip-rule="evenodd" d="M0 10C0 4.579 4.579 0 10 0C15.421 0 20 4.579 20 10C20 13.19 18.408 16.078 16 17.924V18H15.898C14.23 19.245 12.187 20 10 20C7.813 20 5.77 19.245 4.102 18H4V17.924C1.592 16.078 0 13.189 0 10ZM7.12347 15.236C6.59154 15.6639 6.22136 16.2604 6.074 16.927C7.242 17.604 8.584 18 10 18C11.416 18 12.758 17.604 13.926 16.927C13.7785 16.2605 13.4082 15.6641 12.8764 15.2362C12.3445 14.8083 11.6827 14.5744 11 14.573H9C8.3173 14.5742 7.6554 14.808 7.12347 15.236ZM13.7677 13.4117C14.5877 13.9574 15.2286 14.7329 15.61 15.641C17.077 14.182 18 12.176 18 10C18 5.663 14.337 2 10 2C5.663 2 2 5.663 2 10C2 12.176 2.923 14.182 4.39 15.641C4.77144 14.7329 5.41227 13.9574 6.23227 13.4117C7.05227 12.866 8.01501 12.5742 9 12.573H11C11.985 12.5742 12.9477 12.866 13.7677 13.4117ZM6 8C6 5.72 7.72 4 10 4C12.28 4 14 5.72 14 8C14 10.28 12.28 12 10 12C7.72 12 6 10.28 6 8ZM8 8C8 9.178 8.822 10 10 10C11.178 10 12 9.178 12 8C12 6.822 11.178 6 10 6C8.822 6 8 6.822 8 8Z" />
  </symbol>
  
  <symbol id="fav2" viewBox="0 0 15 14">
    <path d="M14.5849 3.22311C14.3615 2.7098 14.0394 2.24464 13.6365 1.85368C13.2333 1.46155 12.758 1.14993 12.2363 0.935761C11.6954 0.712803 11.1152 0.59868 10.5295 0.600018C9.70772 0.600018 8.90596 0.823295 8.20921 1.24504C8.04253 1.34593 7.88418 1.45674 7.73416 1.57748C7.58414 1.45674 7.42579 1.34593 7.2591 1.24504C6.56236 0.823295 5.7606 0.600018 4.93884 0.600018C4.3471 0.600018 3.7737 0.712483 3.23198 0.935761C2.70858 1.15077 2.23686 1.46005 1.83181 1.85368C1.42843 2.2442 1.10619 2.70947 0.883373 3.22311C0.65168 3.75732 0.533333 4.32461 0.533333 4.90844C0.533333 5.45919 0.646679 6.0331 0.871705 6.61693C1.06006 7.10483 1.33009 7.61092 1.67513 8.12198C2.22186 8.93074 2.97361 9.77423 3.90705 10.6293C5.4539 12.0467 6.98574 13.0258 7.05075 13.0655L7.44579 13.3169C7.62081 13.4277 7.84584 13.4277 8.02086 13.3169L8.4159 13.0655C8.48091 13.0242 10.0111 12.0467 11.5596 10.6293C12.493 9.77423 13.2448 8.93074 13.7915 8.12198C14.1366 7.61092 14.4083 7.10483 14.5949 6.61693C14.82 6.0331 14.9333 5.45919 14.9333 4.90844C14.935 4.32461 14.8166 3.75732 14.5849 3.22311Z" />
  </symbol>

  <symbol id="plus" viewBox="0 0 12 12">
    <path d="M10.6653 5.13122H7.20214V1.66821C7.20214 0.332846 5.13114 0.332846 5.13114 1.66821V5.13122H1.668C0.332935 5.13122 0.332935 7.20215 1.668 7.20215H5.13114V10.6652C5.13114 12.0005 7.20214 12.0005 7.20214 10.6652V7.20215H10.6653C12.0005 7.20215 12.0005 5.13122 10.6653 5.13122Z" />
  </symbol>

  <symbol id="check" viewBox="0 0 16 16">
    <path d="M8 0.5C3.86 0.5 0.5 3.86 0.5 8C0.5 12.14 3.86 15.5 8 15.5C12.14 15.5 15.5 12.14 15.5 8C15.5 3.86 12.14 0.5 8 0.5ZM6.5 11.75L2.75 8L3.8075 6.9425L6.5 9.6275L12.1925 3.935L13.25 5L6.5 11.75Z" fill="white"/>
  </symbol>

  <symbol id="close" viewBox="0 0 10 10">
    <path d="M9.0799 7.61553L6.6311 5.16673L9.07982 2.71801C10.0241 1.77376 8.55964 0.309342 7.6154 1.25359L5.16668 3.70231L2.71787 1.2535C1.77384 0.309466 0.309467 1.77384 1.2535 2.71787L3.70231 5.16668L1.25359 7.61539C0.309343 8.55964 1.77376 10.0241 2.71801 9.07982L5.16673 6.6311L7.61553 9.0799C8.55969 10.0241 10.0241 8.55969 9.0799 7.61553Z" />
  </symbol>

  <symbol id="arrowRight" fill="transparent" viewBox="0 0 16 14">
    <path d="M1 7H14.7143" stroke="white" stroke-width="2" stroke-linecap="round" stroke-linejoin="round"/>
    <path d="M8.71436 1L14.7144 7L8.71436 13" stroke="white" stroke-width="2" stroke-linecap="round" stroke-linejoin="round"/>
  </symbol>

</svg>